<svg xmlns="http://www.w3.org/2000/svg" xmlns:xlink="http://www.w3.org/1999/xlink" width="500" zoomAndPan="magnify" viewBox="0 0 375 374.999991" height="500" preserveAspectRatio="xMidYMid meet" version="1.0"><defs><g/><clipPath id="9a240f5749"><path d="M 110 75 L 265 75 L 265 235.167969 L 110 235.167969 Z M 110 75 " clip-rule="nonzero"/></clipPath><clipPath id="d1694be256"><path d="M 135 75 L 188 75 L 188 156 L 135 156 Z M 135 75 " clip-rule="nonzero"/></clipPath><clipPath id="60680d3a1f"><path d="M 187.5 131.515625 C 186.582031 130.597656 185.710938 129.636719 184.886719 128.632812 C 184.0625 127.628906 183.289062 126.585938 182.5625 125.507812 C 181.839844 124.425781 181.171875 123.316406 180.558594 122.167969 C 179.945312 121.023438 179.390625 119.851562 178.890625 118.652344 C 178.390625 117.453125 177.949219 116.230469 177.570312 114.988281 C 177.191406 113.746094 176.875 112.488281 176.617188 111.214844 C 176.359375 109.9375 176.167969 108.65625 176.035156 107.363281 C 175.90625 106.070312 175.839844 104.773438 175.835938 103.472656 C 175.832031 102.175781 175.890625 100.878906 176.011719 99.585938 C 176.136719 98.292969 176.320312 97.007812 176.570312 95.730469 C 176.820312 94.457031 177.128906 93.195312 177.5 91.949219 C 177.871094 90.707031 178.304688 89.480469 178.796875 88.277344 C 179.289062 87.074219 179.835938 85.898438 180.445312 84.75 C 181.050781 83.601562 181.714844 82.484375 182.429688 81.402344 C 183.144531 80.316406 183.914062 79.269531 184.730469 78.261719 C 185.550781 77.25 186.417969 76.285156 187.328125 75.359375 L 135.40625 126.953125 L 163.578125 155.128906 Z M 187.5 131.515625 " clip-rule="nonzero"/></clipPath><linearGradient x1="42.625502" gradientTransform="matrix(15.625172, 0, 0, 15.625172, -464.599624, -348.175222)" y1="27.9975" x2="38.406" gradientUnits="userSpaceOnUse" y2="32.216998" id="fdedb45231"><stop stop-opacity="1" stop-color="rgb(100%, 100%, 100%)" offset="0"/><stop stop-opacity="1" stop-color="rgb(100%, 100%, 100%)" offset="0.25"/><stop stop-opacity="1" stop-color="rgb(100%, 100%, 100%)" offset="0.3125"/><stop stop-opacity="1" stop-color="rgb(100%, 100%, 100%)" offset="0.34375"/><stop stop-opacity="1" stop-color="rgb(100%, 100%, 100%)" offset="0.359375"/><stop stop-opacity="1" stop-color="rgb(99.815369%, 99.81842%, 99.821472%)" offset="0.367188"/><stop stop-opacity="1" stop-color="rgb(98.802185%, 98.825073%, 98.846436%)" offset="0.371094"/><stop stop-opacity="1" stop-color="rgb(97.975159%, 98.01178%, 98.048401%)" offset="0.375"/><stop stop-opacity="1" stop-color="rgb(97.146606%, 97.198486%, 97.250366%)" offset="0.378906"/><stop stop-opacity="1" stop-color="rgb(96.318054%, 96.386719%, 96.453857%)" offset="0.382813"/><stop stop-opacity="1" stop-color="rgb(95.489502%, 95.573425%, 95.655823%)" offset="0.386719"/><stop stop-opacity="1" stop-color="rgb(94.662476%, 94.760132%, 94.857788%)" offset="0.390625"/><stop stop-opacity="1" stop-color="rgb(93.833923%, 93.946838%, 94.059753%)" offset="0.394531"/><stop stop-opacity="1" stop-color="rgb(93.005371%, 93.133545%, 93.263245%)" offset="0.398438"/><stop stop-opacity="1" stop-color="rgb(92.176819%, 92.320251%, 92.46521%)" offset="0.402344"/><stop stop-opacity="1" stop-color="rgb(91.349792%, 91.508484%, 91.667175%)" offset="0.40625"/><stop stop-opacity="1" stop-color="rgb(90.52124%, 90.69519%, 90.869141%)" offset="0.410156"/><stop stop-opacity="1" stop-color="rgb(89.692688%, 89.881897%, 90.071106%)" offset="0.414063"/><stop stop-opacity="1" stop-color="rgb(88.864136%, 89.068604%, 89.273071%)" offset="0.417969"/><stop stop-opacity="1" stop-color="rgb(88.037109%, 88.256836%, 88.476562%)" offset="0.421875"/><stop stop-opacity="1" stop-color="rgb(87.208557%, 87.443542%, 87.678528%)" offset="0.425781"/><stop stop-opacity="1" stop-color="rgb(86.380005%, 86.630249%, 86.880493%)" offset="0.429688"/><stop stop-opacity="1" stop-color="rgb(85.551453%, 85.816956%, 86.082458%)" offset="0.433594"/><stop stop-opacity="1" stop-color="rgb(84.724426%, 85.005188%, 85.28595%)" offset="0.4375"/><stop stop-opacity="1" stop-color="rgb(83.895874%, 84.191895%, 84.487915%)" offset="0.441406"/><stop stop-opacity="1" stop-color="rgb(83.067322%, 83.378601%, 83.68988%)" offset="0.445312"/><stop stop-opacity="1" stop-color="rgb(82.23877%, 82.565308%, 82.891846%)" offset="0.449219"/><stop stop-opacity="1" stop-color="rgb(81.411743%, 81.75354%, 82.093811%)" offset="0.453125"/><stop stop-opacity="1" stop-color="rgb(80.583191%, 80.940247%, 81.295776%)" offset="0.457031"/><stop stop-opacity="1" stop-color="rgb(79.754639%, 80.126953%, 80.499268%)" offset="0.460938"/><stop stop-opacity="1" stop-color="rgb(78.926086%, 79.31366%, 79.701233%)" offset="0.464844"/><stop stop-opacity="1" stop-color="rgb(78.09906%, 78.500366%, 78.903198%)" offset="0.46875"/><stop stop-opacity="1" stop-color="rgb(77.270508%, 77.687073%, 78.105164%)" offset="0.472656"/><stop stop-opacity="1" stop-color="rgb(76.441956%, 76.875305%, 77.307129%)" offset="0.476562"/><stop stop-opacity="1" stop-color="rgb(75.613403%, 76.062012%, 76.509094%)" offset="0.480469"/><stop stop-opacity="1" stop-color="rgb(74.786377%, 75.248718%, 75.712585%)" offset="0.484375"/><stop stop-opacity="1" stop-color="rgb(73.957825%, 74.435425%, 74.914551%)" offset="0.488281"/><stop stop-opacity="1" stop-color="rgb(73.129272%, 73.623657%, 74.116516%)" offset="0.492188"/><stop stop-opacity="1" stop-color="rgb(72.30072%, 72.810364%, 73.318481%)" offset="0.496094"/><stop stop-opacity="1" stop-color="rgb(71.473694%, 71.99707%, 72.521973%)" offset="0.5"/><stop stop-opacity="1" stop-color="rgb(70.645142%, 71.183777%, 71.723938%)" offset="0.503906"/><stop stop-opacity="1" stop-color="rgb(69.816589%, 70.372009%, 70.925903%)" offset="0.507812"/><stop stop-opacity="1" stop-color="rgb(68.988037%, 69.558716%, 70.127869%)" offset="0.511719"/><stop stop-opacity="1" stop-color="rgb(68.161011%, 68.745422%, 69.329834%)" offset="0.515625"/><stop stop-opacity="1" stop-color="rgb(67.332458%, 67.932129%, 68.531799%)" offset="0.519531"/><stop stop-opacity="1" stop-color="rgb(66.503906%, 67.118835%, 67.735291%)" offset="0.523438"/><stop stop-opacity="1" stop-color="rgb(65.675354%, 66.305542%, 66.937256%)" offset="0.527344"/><stop stop-opacity="1" stop-color="rgb(64.848328%, 65.493774%, 66.139221%)" offset="0.53125"/><stop stop-opacity="1" stop-color="rgb(64.019775%, 64.680481%, 65.341187%)" offset="0.535156"/><stop stop-opacity="1" stop-color="rgb(63.191223%, 63.867188%, 64.543152%)" offset="0.539062"/><stop stop-opacity="1" stop-color="rgb(62.362671%, 63.053894%, 63.745117%)" offset="0.542969"/><stop stop-opacity="1" stop-color="rgb(61.535645%, 62.242126%, 62.948608%)" offset="0.546875"/><stop stop-opacity="1" stop-color="rgb(60.707092%, 61.428833%, 62.150574%)" offset="0.550781"/><stop stop-opacity="1" stop-color="rgb(59.87854%, 60.61554%, 61.352539%)" offset="0.554688"/><stop stop-opacity="1" stop-color="rgb(59.049988%, 59.802246%, 60.554504%)" offset="0.558594"/><stop stop-opacity="1" stop-color="rgb(58.222961%, 58.990479%, 59.757996%)" offset="0.5625"/><stop stop-opacity="1" stop-color="rgb(57.394409%, 58.177185%, 58.959961%)" offset="0.566406"/><stop stop-opacity="1" stop-color="rgb(56.565857%, 57.363892%, 58.161926%)" offset="0.570312"/><stop stop-opacity="1" stop-color="rgb(55.737305%, 56.550598%, 57.363892%)" offset="0.574219"/><stop stop-opacity="1" stop-color="rgb(54.910278%, 55.738831%, 56.565857%)" offset="0.578125"/><stop stop-opacity="1" stop-color="rgb(54.081726%, 54.925537%, 55.767822%)" offset="0.582031"/><stop stop-opacity="1" stop-color="rgb(53.253174%, 54.112244%, 54.971313%)" offset="0.585938"/><stop stop-opacity="1" stop-color="rgb(52.424622%, 53.29895%, 54.173279%)" offset="0.589844"/><stop stop-opacity="1" stop-color="rgb(51.597595%, 52.485657%, 53.375244%)" offset="0.59375"/><stop stop-opacity="1" stop-color="rgb(50.769043%, 51.672363%, 52.577209%)" offset="0.597656"/><stop stop-opacity="1" stop-color="rgb(49.940491%, 50.860596%, 51.780701%)" offset="0.601562"/><stop stop-opacity="1" stop-color="rgb(49.111938%, 50.047302%, 50.982666%)" offset="0.605469"/><stop stop-opacity="1" stop-color="rgb(48.284912%, 49.234009%, 50.184631%)" offset="0.609375"/><stop stop-opacity="1" stop-color="rgb(47.45636%, 48.420715%, 49.386597%)" offset="0.613281"/><stop stop-opacity="1" stop-color="rgb(46.627808%, 47.608948%, 48.588562%)" offset="0.617188"/><stop stop-opacity="1" stop-color="rgb(45.799255%, 46.795654%, 47.790527%)" offset="0.621094"/><stop stop-opacity="1" stop-color="rgb(44.972229%, 45.982361%, 46.994019%)" offset="0.625"/><stop stop-opacity="1" stop-color="rgb(44.143677%, 45.169067%, 46.195984%)" offset="0.628906"/><stop stop-opacity="1" stop-color="rgb(43.315125%, 44.3573%, 45.397949%)" offset="0.632813"/><stop stop-opacity="1" stop-color="rgb(42.486572%, 43.544006%, 44.599915%)" offset="0.636719"/><stop stop-opacity="1" stop-color="rgb(41.659546%, 42.730713%, 43.80188%)" offset="0.640625"/><stop stop-opacity="1" stop-color="rgb(40.830994%, 41.917419%, 43.003845%)" offset="0.644531"/><stop stop-opacity="1" stop-color="rgb(40.002441%, 41.105652%, 42.207336%)" offset="0.648438"/><stop stop-opacity="1" stop-color="rgb(39.173889%, 40.292358%, 41.409302%)" offset="0.652344"/><stop stop-opacity="1" stop-color="rgb(38.346863%, 39.479065%, 40.611267%)" offset="0.65625"/><stop stop-opacity="1" stop-color="rgb(37.518311%, 38.665771%, 39.813232%)" offset="0.660156"/><stop stop-opacity="1" stop-color="rgb(36.689758%, 37.852478%, 39.016724%)" offset="0.664062"/><stop stop-opacity="1" stop-color="rgb(35.861206%, 37.039185%, 38.218689%)" offset="0.667969"/><stop stop-opacity="1" stop-color="rgb(35.03418%, 36.227417%, 37.420654%)" offset="0.671875"/><stop stop-opacity="1" stop-color="rgb(34.205627%, 35.414124%, 36.62262%)" offset="0.675781"/><stop stop-opacity="1" stop-color="rgb(33.377075%, 34.60083%, 35.824585%)" offset="0.679688"/><stop stop-opacity="1" stop-color="rgb(32.548523%, 33.787537%, 35.02655%)" offset="0.683594"/><stop stop-opacity="1" stop-color="rgb(31.721497%, 32.975769%, 34.230042%)" offset="0.6875"/><stop stop-opacity="1" stop-color="rgb(30.892944%, 32.162476%, 33.432007%)" offset="0.691406"/><stop stop-opacity="1" stop-color="rgb(30.064392%, 31.349182%, 32.633972%)" offset="0.695312"/><stop stop-opacity="1" stop-color="rgb(29.23584%, 30.535889%, 31.835938%)" offset="0.699219"/><stop stop-opacity="1" stop-color="rgb(28.408813%, 29.724121%, 31.037903%)" offset="0.703125"/><stop stop-opacity="1" stop-color="rgb(27.580261%, 28.910828%, 30.239868%)" offset="0.707031"/><stop stop-opacity="1" stop-color="rgb(26.751709%, 28.097534%, 29.443359%)" offset="0.710938"/><stop stop-opacity="1" stop-color="rgb(25.923157%, 27.284241%, 28.645325%)" offset="0.714844"/><stop stop-opacity="1" stop-color="rgb(25.09613%, 26.470947%, 27.84729%)" offset="0.71875"/><stop stop-opacity="1" stop-color="rgb(24.267578%, 25.657654%, 27.049255%)" offset="0.722656"/><stop stop-opacity="1" stop-color="rgb(23.439026%, 24.845886%, 26.252747%)" offset="0.726562"/><stop stop-opacity="1" stop-color="rgb(22.610474%, 24.032593%, 25.454712%)" offset="0.730469"/><stop stop-opacity="1" stop-color="rgb(21.783447%, 23.219299%, 24.656677%)" offset="0.734375"/><stop stop-opacity="1" stop-color="rgb(20.954895%, 22.406006%, 23.858643%)" offset="0.738281"/><stop stop-opacity="1" stop-color="rgb(20.126343%, 21.594238%, 23.060608%)" offset="0.742188"/><stop stop-opacity="1" stop-color="rgb(19.297791%, 20.780945%, 22.262573%)" offset="0.746094"/><stop stop-opacity="1" stop-color="rgb(18.470764%, 19.967651%, 21.466064%)" offset="0.75"/><stop stop-opacity="1" stop-color="rgb(17.642212%, 19.154358%, 20.66803%)" offset="0.753906"/><stop stop-opacity="1" stop-color="rgb(16.81366%, 18.34259%, 19.869995%)" offset="0.757813"/><stop stop-opacity="1" stop-color="rgb(15.985107%, 17.529297%, 19.07196%)" offset="0.761719"/><stop stop-opacity="1" stop-color="rgb(15.158081%, 16.716003%, 18.275452%)" offset="0.765625"/><stop stop-opacity="1" stop-color="rgb(14.329529%, 15.90271%, 17.477417%)" offset="0.769531"/><stop stop-opacity="1" stop-color="rgb(13.500977%, 15.090942%, 16.679382%)" offset="0.773438"/><stop stop-opacity="1" stop-color="rgb(13.200378%, 14.794922%, 16.389465%)" offset="0.777344"/><stop stop-opacity="1" stop-color="rgb(12.89978%, 14.498901%, 16.099548%)" offset="0.78125"/><stop stop-opacity="1" stop-color="rgb(12.89978%, 14.498901%, 16.099548%)" offset="0.8125"/><stop stop-opacity="1" stop-color="rgb(12.89978%, 14.498901%, 16.099548%)" offset="0.875"/><stop stop-opacity="1" stop-color="rgb(12.89978%, 14.498901%, 16.099548%)" offset="1"/></linearGradient><clipPath id="4578bab8e9"><path d="M 187 154 L 240 154 L 240 235.167969 L 187 235.167969 Z M 187 154 " clip-rule="nonzero"/></clipPath><clipPath id="770a659c99"><path d="M 211.21875 154.957031 L 187.5 178.675781 C 188.425781 179.597656 189.300781 180.5625 190.128906 181.570312 C 190.957031 182.578125 191.734375 183.625 192.457031 184.710938 C 193.183594 185.796875 193.855469 186.914062 194.46875 188.0625 C 195.085938 189.214844 195.640625 190.394531 196.140625 191.597656 C 196.640625 192.804688 197.082031 194.03125 197.460938 195.28125 C 197.839844 196.527344 198.15625 197.792969 198.410156 199.074219 C 198.664062 200.351562 198.855469 201.640625 198.984375 202.941406 C 199.113281 204.238281 199.175781 205.542969 199.175781 206.847656 C 199.175781 208.152344 199.113281 209.453125 198.984375 210.75 C 198.855469 212.050781 198.664062 213.339844 198.410156 214.621094 C 198.15625 215.898438 197.839844 217.164062 197.460938 218.414062 C 197.082031 219.660156 196.640625 220.886719 196.140625 222.09375 C 195.640625 223.300781 195.085938 224.476562 194.46875 225.628906 C 193.855469 226.78125 193.183594 227.898438 192.457031 228.980469 C 191.734375 230.066406 190.957031 231.113281 190.128906 232.121094 C 189.300781 233.128906 188.425781 234.097656 187.5 235.019531 L 239.375 183.144531 Z M 211.21875 154.957031 " clip-rule="nonzero"/></clipPath><linearGradient x1="40.832498" gradientTransform="matrix(15.625172, 0, 0, 15.625172, -464.599624, -348.175222)" y1="36.422497" x2="45.054501" gradientUnits="userSpaceOnUse" y2="32.200502" id="af1fd73711"><stop stop-opacity="1" stop-color="rgb(100%, 100%, 100%)" offset="0"/><stop stop-opacity="1" stop-color="rgb(100%, 100%, 100%)" offset="0.25"/><stop stop-opacity="1" stop-color="rgb(100%, 100%, 100%)" offset="0.3125"/><stop stop-opacity="1" stop-color="rgb(100%, 100%, 100%)" offset="0.34375"/><stop stop-opacity="1" stop-color="rgb(100%, 100%, 100%)" offset="0.359375"/><stop stop-opacity="1" stop-color="rgb(100%, 100%, 100%)" offset="0.367188"/><stop stop-opacity="1" stop-color="rgb(99.673462%, 99.679565%, 99.685669%)" offset="0.371094"/><stop stop-opacity="1" stop-color="rgb(99.346924%, 99.359131%, 99.371338%)" offset="0.375"/><stop stop-opacity="1" stop-color="rgb(98.516846%, 98.544312%, 98.571777%)" offset="0.378906"/><stop stop-opacity="1" stop-color="rgb(97.686768%, 97.729492%, 97.772217%)" offset="0.382812"/><stop stop-opacity="1" stop-color="rgb(96.856689%, 96.914673%, 96.972656%)" offset="0.386719"/><stop stop-opacity="1" stop-color="rgb(96.026611%, 96.099854%, 96.173096%)" offset="0.390625"/><stop stop-opacity="1" stop-color="rgb(95.196533%, 95.283508%, 95.372009%)" offset="0.394531"/><stop stop-opacity="1" stop-color="rgb(94.366455%, 94.468689%, 94.572449%)" offset="0.398438"/><stop stop-opacity="1" stop-color="rgb(93.534851%, 93.65387%, 93.772888%)" offset="0.402344"/><stop stop-opacity="1" stop-color="rgb(92.704773%, 92.83905%, 92.973328%)" offset="0.40625"/><stop stop-opacity="1" stop-color="rgb(91.874695%, 92.024231%, 92.173767%)" offset="0.410156"/><stop stop-opacity="1" stop-color="rgb(91.044617%, 91.209412%, 91.374207%)" offset="0.414062"/><stop stop-opacity="1" stop-color="rgb(90.214539%, 90.394592%, 90.574646%)" offset="0.417969"/><stop stop-opacity="1" stop-color="rgb(89.38446%, 89.579773%, 89.775085%)" offset="0.421875"/><stop stop-opacity="1" stop-color="rgb(88.554382%, 88.764954%, 88.973999%)" offset="0.425781"/><stop stop-opacity="1" stop-color="rgb(87.724304%, 87.950134%, 88.174438%)" offset="0.429688"/><stop stop-opacity="1" stop-color="rgb(86.894226%, 87.133789%, 87.374878%)" offset="0.433594"/><stop stop-opacity="1" stop-color="rgb(86.064148%, 86.31897%, 86.575317%)" offset="0.4375"/><stop stop-opacity="1" stop-color="rgb(85.232544%, 85.50415%, 85.775757%)" offset="0.441406"/><stop stop-opacity="1" stop-color="rgb(84.402466%, 84.689331%, 84.976196%)" offset="0.445313"/><stop stop-opacity="1" stop-color="rgb(83.572388%, 83.874512%, 84.176636%)" offset="0.449219"/><stop stop-opacity="1" stop-color="rgb(82.74231%, 83.059692%, 83.377075%)" offset="0.453125"/><stop stop-opacity="1" stop-color="rgb(81.912231%, 82.244873%, 82.575989%)" offset="0.457031"/><stop stop-opacity="1" stop-color="rgb(81.082153%, 81.430054%, 81.776428%)" offset="0.460938"/><stop stop-opacity="1" stop-color="rgb(80.252075%, 80.615234%, 80.976868%)" offset="0.464844"/><stop stop-opacity="1" stop-color="rgb(79.421997%, 79.800415%, 80.177307%)" offset="0.46875"/><stop stop-opacity="1" stop-color="rgb(78.591919%, 78.98407%, 79.377747%)" offset="0.472656"/><stop stop-opacity="1" stop-color="rgb(77.761841%, 78.16925%, 78.578186%)" offset="0.476563"/><stop stop-opacity="1" stop-color="rgb(76.930237%, 77.354431%, 77.778625%)" offset="0.480469"/><stop stop-opacity="1" stop-color="rgb(76.100159%, 76.539612%, 76.979065%)" offset="0.484375"/><stop stop-opacity="1" stop-color="rgb(75.270081%, 75.724792%, 76.179504%)" offset="0.488281"/><stop stop-opacity="1" stop-color="rgb(74.440002%, 74.909973%, 75.379944%)" offset="0.492188"/><stop stop-opacity="1" stop-color="rgb(73.609924%, 74.095154%, 74.578857%)" offset="0.496094"/><stop stop-opacity="1" stop-color="rgb(72.779846%, 73.280334%, 73.779297%)" offset="0.5"/><stop stop-opacity="1" stop-color="rgb(71.949768%, 72.463989%, 72.979736%)" offset="0.503906"/><stop stop-opacity="1" stop-color="rgb(71.11969%, 71.64917%, 72.180176%)" offset="0.507813"/><stop stop-opacity="1" stop-color="rgb(70.289612%, 70.834351%, 71.380615%)" offset="0.511719"/><stop stop-opacity="1" stop-color="rgb(69.459534%, 70.019531%, 70.581055%)" offset="0.515625"/><stop stop-opacity="1" stop-color="rgb(68.62793%, 69.204712%, 69.781494%)" offset="0.519531"/><stop stop-opacity="1" stop-color="rgb(67.797852%, 68.389893%, 68.981934%)" offset="0.523438"/><stop stop-opacity="1" stop-color="rgb(66.967773%, 67.575073%, 68.180847%)" offset="0.527344"/><stop stop-opacity="1" stop-color="rgb(66.137695%, 66.760254%, 67.381287%)" offset="0.53125"/><stop stop-opacity="1" stop-color="rgb(65.307617%, 65.945435%, 66.581726%)" offset="0.535156"/><stop stop-opacity="1" stop-color="rgb(64.477539%, 65.130615%, 65.782166%)" offset="0.539062"/><stop stop-opacity="1" stop-color="rgb(63.647461%, 64.31427%, 64.982605%)" offset="0.542969"/><stop stop-opacity="1" stop-color="rgb(62.817383%, 63.499451%, 64.183044%)" offset="0.546875"/><stop stop-opacity="1" stop-color="rgb(61.987305%, 62.684631%, 63.383484%)" offset="0.550781"/><stop stop-opacity="1" stop-color="rgb(61.157227%, 61.869812%, 62.583923%)" offset="0.554688"/><stop stop-opacity="1" stop-color="rgb(60.325623%, 61.054993%, 61.784363%)" offset="0.558594"/><stop stop-opacity="1" stop-color="rgb(59.495544%, 60.240173%, 60.984802%)" offset="0.5625"/><stop stop-opacity="1" stop-color="rgb(58.665466%, 59.425354%, 60.183716%)" offset="0.566406"/><stop stop-opacity="1" stop-color="rgb(57.835388%, 58.610535%, 59.384155%)" offset="0.570313"/><stop stop-opacity="1" stop-color="rgb(57.00531%, 57.795715%, 58.584595%)" offset="0.574219"/><stop stop-opacity="1" stop-color="rgb(56.175232%, 56.980896%, 57.785034%)" offset="0.578125"/><stop stop-opacity="1" stop-color="rgb(55.345154%, 56.164551%, 56.985474%)" offset="0.582031"/><stop stop-opacity="1" stop-color="rgb(54.515076%, 55.349731%, 56.185913%)" offset="0.585938"/><stop stop-opacity="1" stop-color="rgb(53.684998%, 54.534912%, 55.386353%)" offset="0.589844"/><stop stop-opacity="1" stop-color="rgb(52.854919%, 53.720093%, 54.586792%)" offset="0.59375"/><stop stop-opacity="1" stop-color="rgb(52.023315%, 52.905273%, 53.785706%)" offset="0.597656"/><stop stop-opacity="1" stop-color="rgb(51.193237%, 52.090454%, 52.986145%)" offset="0.601562"/><stop stop-opacity="1" stop-color="rgb(50.363159%, 51.275635%, 52.186584%)" offset="0.605469"/><stop stop-opacity="1" stop-color="rgb(49.533081%, 50.460815%, 51.387024%)" offset="0.609375"/><stop stop-opacity="1" stop-color="rgb(48.703003%, 49.64447%, 50.587463%)" offset="0.613281"/><stop stop-opacity="1" stop-color="rgb(47.872925%, 48.829651%, 49.787903%)" offset="0.617188"/><stop stop-opacity="1" stop-color="rgb(47.042847%, 48.014832%, 48.988342%)" offset="0.621094"/><stop stop-opacity="1" stop-color="rgb(46.212769%, 47.200012%, 48.188782%)" offset="0.625"/><stop stop-opacity="1" stop-color="rgb(45.38269%, 46.385193%, 47.389221%)" offset="0.628906"/><stop stop-opacity="1" stop-color="rgb(44.552612%, 45.570374%, 46.589661%)" offset="0.632812"/><stop stop-opacity="1" stop-color="rgb(43.721008%, 44.755554%, 45.788574%)" offset="0.636719"/><stop stop-opacity="1" stop-color="rgb(42.89093%, 43.940735%, 44.989014%)" offset="0.640625"/><stop stop-opacity="1" stop-color="rgb(42.060852%, 43.125916%, 44.189453%)" offset="0.644531"/><stop stop-opacity="1" stop-color="rgb(41.230774%, 42.311096%, 43.389893%)" offset="0.648438"/><stop stop-opacity="1" stop-color="rgb(40.400696%, 41.494751%, 42.590332%)" offset="0.652344"/><stop stop-opacity="1" stop-color="rgb(39.570618%, 40.679932%, 41.790771%)" offset="0.65625"/><stop stop-opacity="1" stop-color="rgb(38.74054%, 39.865112%, 40.991211%)" offset="0.660156"/><stop stop-opacity="1" stop-color="rgb(37.910461%, 39.050293%, 40.19165%)" offset="0.664063"/><stop stop-opacity="1" stop-color="rgb(37.080383%, 38.235474%, 39.390564%)" offset="0.667969"/><stop stop-opacity="1" stop-color="rgb(36.250305%, 37.420654%, 38.591003%)" offset="0.671875"/><stop stop-opacity="1" stop-color="rgb(35.418701%, 36.605835%, 37.791443%)" offset="0.675781"/><stop stop-opacity="1" stop-color="rgb(34.588623%, 35.791016%, 36.991882%)" offset="0.679688"/><stop stop-opacity="1" stop-color="rgb(33.758545%, 34.976196%, 36.192322%)" offset="0.683594"/><stop stop-opacity="1" stop-color="rgb(32.928467%, 34.161377%, 35.392761%)" offset="0.6875"/><stop stop-opacity="1" stop-color="rgb(32.098389%, 33.345032%, 34.593201%)" offset="0.691406"/><stop stop-opacity="1" stop-color="rgb(31.268311%, 32.530212%, 33.79364%)" offset="0.695312"/><stop stop-opacity="1" stop-color="rgb(30.438232%, 31.715393%, 32.99408%)" offset="0.699219"/><stop stop-opacity="1" stop-color="rgb(29.608154%, 30.900574%, 32.194519%)" offset="0.703125"/><stop stop-opacity="1" stop-color="rgb(28.77655%, 30.085754%, 31.393433%)" offset="0.707031"/><stop stop-opacity="1" stop-color="rgb(27.946472%, 29.270935%, 30.593872%)" offset="0.710938"/><stop stop-opacity="1" stop-color="rgb(27.116394%, 28.456116%, 29.794312%)" offset="0.714844"/><stop stop-opacity="1" stop-color="rgb(26.286316%, 27.641296%, 28.994751%)" offset="0.71875"/><stop stop-opacity="1" stop-color="rgb(25.456238%, 26.824951%, 28.19519%)" offset="0.722656"/><stop stop-opacity="1" stop-color="rgb(24.62616%, 26.010132%, 27.39563%)" offset="0.726563"/><stop stop-opacity="1" stop-color="rgb(23.796082%, 25.195312%, 26.596069%)" offset="0.730469"/><stop stop-opacity="1" stop-color="rgb(22.966003%, 24.380493%, 25.796509%)" offset="0.734375"/><stop stop-opacity="1" stop-color="rgb(22.135925%, 23.565674%, 24.995422%)" offset="0.738281"/><stop stop-opacity="1" stop-color="rgb(21.305847%, 22.750854%, 24.195862%)" offset="0.742188"/><stop stop-opacity="1" stop-color="rgb(20.474243%, 21.936035%, 23.396301%)" offset="0.746094"/><stop stop-opacity="1" stop-color="rgb(19.644165%, 21.121216%, 22.596741%)" offset="0.75"/><stop stop-opacity="1" stop-color="rgb(18.814087%, 20.306396%, 21.79718%)" offset="0.753906"/><stop stop-opacity="1" stop-color="rgb(17.984009%, 19.491577%, 20.99762%)" offset="0.757812"/><stop stop-opacity="1" stop-color="rgb(17.153931%, 18.675232%, 20.198059%)" offset="0.761719"/><stop stop-opacity="1" stop-color="rgb(16.323853%, 17.860413%, 19.398499%)" offset="0.765625"/><stop stop-opacity="1" stop-color="rgb(15.493774%, 17.045593%, 18.598938%)" offset="0.769531"/><stop stop-opacity="1" stop-color="rgb(14.663696%, 16.230774%, 17.799377%)" offset="0.773438"/><stop stop-opacity="1" stop-color="rgb(13.833618%, 15.415955%, 16.998291%)" offset="0.777344"/><stop stop-opacity="1" stop-color="rgb(13.00354%, 14.601135%, 16.19873%)" offset="0.78125"/><stop stop-opacity="1" stop-color="rgb(12.95166%, 14.549255%, 16.148376%)" offset="0.8125"/><stop stop-opacity="1" stop-color="rgb(12.89978%, 14.498901%, 16.099548%)" offset="0.875"/><stop stop-opacity="1" stop-color="rgb(12.89978%, 14.498901%, 16.099548%)" offset="1"/></linearGradient></defs><rect x="-37.5" width="450" fill="#ffffff" y="-37.499999" height="449.999989" fill-opacity="1"/><rect x="-37.5" width="450" fill="#ffffff" y="-37.499999" height="449.999989" fill-opacity="1"/><g clip-path="url(#9a240f5749)"><path fill="#212529" d="M 263.035156 150.550781 L 187.5 75.015625 L 111.96875 150.550781 C 111.675781 150.84375 111.414062 151.164062 111.183594 151.507812 C 110.953125 151.855469 110.757812 152.21875 110.601562 152.605469 C 110.441406 152.988281 110.324219 153.382812 110.242188 153.792969 C 110.160156 154.199219 110.121094 154.609375 110.121094 155.027344 C 110.121094 155.441406 110.160156 155.851562 110.242188 156.261719 C 110.324219 156.667969 110.441406 157.0625 110.601562 157.449219 C 110.757812 157.832031 110.953125 158.195312 111.183594 158.542969 C 111.414062 158.886719 111.675781 159.207031 111.96875 159.503906 L 187.5 235.035156 L 263.035156 159.503906 C 263.328125 159.207031 263.589844 158.886719 263.820312 158.542969 C 264.050781 158.195312 264.242188 157.832031 264.402344 157.449219 C 264.5625 157.0625 264.679688 156.667969 264.761719 156.261719 C 264.84375 155.851562 264.882812 155.441406 264.882812 155.027344 C 264.882812 154.609375 264.84375 154.199219 264.761719 153.792969 C 264.679688 153.382812 264.5625 152.988281 264.402344 152.605469 C 264.242188 152.21875 264.050781 151.855469 263.820312 151.507812 C 263.589844 151.164062 263.328125 150.84375 263.035156 150.550781 Z M 187.5 178.675781 L 163.84375 155.019531 L 187.5 131.359375 L 211.15625 155.019531 Z M 187.5 178.675781 " fill-opacity="1" fill-rule="nonzero"/></g><g clip-path="url(#d1694be256)"><g clip-path="url(#60680d3a1f)"><path fill="url(#fdedb45231)" d="M 135.40625 75.359375 L 135.40625 155.128906 L 187.5 155.128906 L 187.5 75.359375 Z M 135.40625 75.359375 " fill-rule="nonzero"/></g></g><g clip-path="url(#4578bab8e9)"><g clip-path="url(#770a659c99)"><path fill="url(#af1fd73711)" d="M 187.5 154.957031 L 187.5 235.019531 L 239.375 235.019531 L 239.375 154.957031 Z M 187.5 154.957031 " fill-rule="nonzero"/></g></g><g fill="#212529" fill-opacity="1"><g transform="translate(123.705913, 279.158494)"><g><path d="M 24.34375 -22.125 C 23.757812 -23.207031 22.921875 -24.03125 21.828125 -24.59375 C 20.742188 -25.164062 19.460938 -25.453125 17.984375 -25.453125 C 15.429688 -25.453125 13.382812 -24.613281 11.84375 -22.9375 C 10.3125 -21.257812 9.546875 -19.023438 9.546875 -16.234375 C 9.546875 -13.253906 10.351562 -10.925781 11.96875 -9.25 C 13.582031 -7.570312 15.800781 -6.734375 18.625 -6.734375 C 20.5625 -6.734375 22.195312 -7.222656 23.53125 -8.203125 C 24.875 -9.191406 25.851562 -10.609375 26.46875 -12.453125 L 16.46875 -12.453125 L 16.46875 -18.265625 L 33.609375 -18.265625 L 33.609375 -10.921875 C 33.023438 -8.960938 32.035156 -7.132812 30.640625 -5.4375 C 29.242188 -3.75 27.46875 -2.378906 25.3125 -1.328125 C 23.164062 -0.285156 20.738281 0.234375 18.03125 0.234375 C 14.832031 0.234375 11.976562 -0.460938 9.46875 -1.859375 C 6.96875 -3.265625 5.015625 -5.210938 3.609375 -7.703125 C 2.210938 -10.191406 1.515625 -13.035156 1.515625 -16.234375 C 1.515625 -19.429688 2.210938 -22.28125 3.609375 -24.78125 C 5.015625 -27.289062 6.960938 -29.242188 9.453125 -30.640625 C 11.941406 -32.035156 14.785156 -32.734375 17.984375 -32.734375 C 21.859375 -32.734375 25.125 -31.796875 27.78125 -29.921875 C 30.4375 -28.046875 32.195312 -25.445312 33.0625 -22.125 Z M 24.34375 -22.125 "/></g></g></g><g fill="#212529" fill-opacity="1"><g transform="translate(158.839802, 279.158494)"><g><path d="M 10.75 -26.046875 L 10.75 -19.5 L 21.296875 -19.5 L 21.296875 -13.421875 L 10.75 -13.421875 L 10.75 -6.3125 L 22.6875 -6.3125 L 22.6875 0 L 2.859375 0 L 2.859375 -32.375 L 22.6875 -32.375 L 22.6875 -26.046875 Z M 10.75 -26.046875 "/></g></g></g><g fill="#212529" fill-opacity="1"><g transform="translate(183.783952, 279.158494)"><g><path d="M 23.015625 -5.71875 L 10.921875 -5.71875 L 8.984375 0 L 0.734375 0 L 12.453125 -32.375 L 21.578125 -32.375 L 33.296875 0 L 24.9375 0 Z M 20.984375 -11.796875 L 16.96875 -23.65625 L 13 -11.796875 Z M 20.984375 -11.796875 "/></g></g></g><g fill="#212529" fill-opacity="1"><g transform="translate(217.765153, 279.158494)"><g><path d="M 14.984375 -32.375 C 18.398438 -32.375 21.382812 -31.695312 23.9375 -30.34375 C 26.488281 -28.988281 28.460938 -27.085938 29.859375 -24.640625 C 31.253906 -22.203125 31.953125 -19.382812 31.953125 -16.1875 C 31.953125 -13.019531 31.253906 -10.207031 29.859375 -7.75 C 28.460938 -5.289062 26.476562 -3.382812 23.90625 -2.03125 C 21.34375 -0.675781 18.367188 0 14.984375 0 L 2.859375 0 L 2.859375 -32.375 Z M 14.484375 -6.828125 C 17.460938 -6.828125 19.78125 -7.640625 21.4375 -9.265625 C 23.101562 -10.898438 23.9375 -13.207031 23.9375 -16.1875 C 23.9375 -19.164062 23.101562 -21.484375 21.4375 -23.140625 C 19.78125 -24.804688 17.460938 -25.640625 14.484375 -25.640625 L 10.75 -25.640625 L 10.75 -6.828125 Z M 14.484375 -6.828125 "/></g></g></g><g fill="#212529" fill-opacity="1"><g transform="translate(100.268312, 296.842313)"><g><path d="M 6.609375 -6.140625 L 10.71875 -6.140625 L 10.71875 -0.453125 C 10.101562 -0.242188 9.46875 -0.09375 8.8125 0 C 8.164062 0.101562 7.441406 0.15625 6.640625 0.15625 C 5.421875 0.15625 4.390625 -0.0820312 3.546875 -0.5625 C 2.710938 -1.050781 2.078125 -1.742188 1.640625 -2.640625 C 1.210938 -3.546875 1 -4.617188 1 -5.859375 C 1 -7.078125 1.238281 -8.132812 1.71875 -9.03125 C 2.195312 -9.9375 2.890625 -10.640625 3.796875 -11.140625 C 4.703125 -11.640625 5.789062 -11.890625 7.0625 -11.890625 C 7.71875 -11.890625 8.335938 -11.828125 8.921875 -11.703125 C 9.503906 -11.585938 10.046875 -11.421875 10.546875 -11.203125 L 10.03125 -10.015625 C 9.59375 -10.203125 9.113281 -10.363281 8.59375 -10.5 C 8.070312 -10.632812 7.535156 -10.703125 6.984375 -10.703125 C 6.023438 -10.703125 5.203125 -10.503906 4.515625 -10.109375 C 3.835938 -9.710938 3.316406 -9.148438 2.953125 -8.421875 C 2.597656 -7.703125 2.421875 -6.847656 2.421875 -5.859375 C 2.421875 -4.878906 2.578125 -4.023438 2.890625 -3.296875 C 3.210938 -2.578125 3.707031 -2.015625 4.375 -1.609375 C 5.039062 -1.210938 5.898438 -1.015625 6.953125 -1.015625 C 7.484375 -1.015625 7.9375 -1.046875 8.3125 -1.109375 C 8.695312 -1.171875 9.039062 -1.242188 9.34375 -1.328125 L 9.34375 -4.921875 L 6.609375 -4.921875 Z M 6.609375 -6.140625 "/></g></g><g transform="translate(112.205334, 296.842313)"><g><path d="M 4.78125 -8.953125 C 5.53125 -8.953125 6.171875 -8.785156 6.703125 -8.453125 C 7.242188 -8.117188 7.65625 -7.65625 7.9375 -7.0625 C 8.21875 -6.46875 8.359375 -5.769531 8.359375 -4.96875 L 8.359375 -4.140625 L 2.296875 -4.140625 C 2.304688 -3.109375 2.5625 -2.320312 3.0625 -1.78125 C 3.5625 -1.25 4.257812 -0.984375 5.15625 -0.984375 C 5.71875 -0.984375 6.210938 -1.03125 6.640625 -1.125 C 7.066406 -1.226562 7.507812 -1.378906 7.96875 -1.578125 L 7.96875 -0.40625 C 7.53125 -0.207031 7.09375 -0.0664062 6.65625 0.015625 C 6.21875 0.109375 5.703125 0.15625 5.109375 0.15625 C 4.265625 0.15625 3.523438 -0.015625 2.890625 -0.359375 C 2.265625 -0.703125 1.78125 -1.207031 1.4375 -1.875 C 1.09375 -2.539062 0.921875 -3.359375 0.921875 -4.328125 C 0.921875 -5.273438 1.078125 -6.09375 1.390625 -6.78125 C 1.710938 -7.476562 2.160156 -8.015625 2.734375 -8.390625 C 3.316406 -8.765625 4 -8.953125 4.78125 -8.953125 Z M 4.765625 -7.859375 C 4.054688 -7.859375 3.488281 -7.625 3.0625 -7.15625 C 2.644531 -6.695312 2.394531 -6.050781 2.3125 -5.21875 L 6.96875 -5.21875 C 6.957031 -5.738281 6.875 -6.195312 6.71875 -6.59375 C 6.5625 -6.988281 6.320312 -7.296875 6 -7.515625 C 5.6875 -7.742188 5.273438 -7.859375 4.765625 -7.859375 Z M 4.765625 -7.859375 "/></g></g><g transform="translate(121.424659, 296.842313)"><g><path d="M 7.09375 -2.40625 C 7.09375 -1.84375 6.953125 -1.367188 6.671875 -0.984375 C 6.390625 -0.609375 5.988281 -0.320312 5.46875 -0.125 C 4.945312 0.0625 4.320312 0.15625 3.59375 0.15625 C 2.976562 0.15625 2.445312 0.109375 2 0.015625 C 1.550781 -0.078125 1.160156 -0.210938 0.828125 -0.390625 L 0.828125 -1.625 C 1.179688 -1.445312 1.609375 -1.285156 2.109375 -1.140625 C 2.609375 -0.992188 3.113281 -0.921875 3.625 -0.921875 C 4.382812 -0.921875 4.9375 -1.039062 5.28125 -1.28125 C 5.625 -1.53125 5.796875 -1.867188 5.796875 -2.296875 C 5.796875 -2.535156 5.726562 -2.742188 5.59375 -2.921875 C 5.457031 -3.109375 5.226562 -3.289062 4.90625 -3.46875 C 4.582031 -3.644531 4.140625 -3.835938 3.578125 -4.046875 C 3.015625 -4.253906 2.523438 -4.460938 2.109375 -4.671875 C 1.703125 -4.890625 1.390625 -5.148438 1.171875 -5.453125 C 0.953125 -5.753906 0.84375 -6.148438 0.84375 -6.640625 C 0.84375 -7.378906 1.140625 -7.945312 1.734375 -8.34375 C 2.335938 -8.75 3.128906 -8.953125 4.109375 -8.953125 C 4.640625 -8.953125 5.132812 -8.898438 5.59375 -8.796875 C 6.0625 -8.691406 6.492188 -8.550781 6.890625 -8.375 L 6.453125 -7.3125 C 6.085938 -7.457031 5.695312 -7.582031 5.28125 -7.6875 C 4.875 -7.800781 4.457031 -7.859375 4.03125 -7.859375 C 3.414062 -7.859375 2.941406 -7.753906 2.609375 -7.546875 C 2.273438 -7.347656 2.109375 -7.070312 2.109375 -6.71875 C 2.109375 -6.445312 2.1875 -6.222656 2.34375 -6.046875 C 2.5 -5.867188 2.742188 -5.703125 3.078125 -5.546875 C 3.410156 -5.390625 3.851562 -5.207031 4.40625 -5 C 4.957031 -4.800781 5.429688 -4.59375 5.828125 -4.375 C 6.234375 -4.15625 6.546875 -3.890625 6.765625 -3.578125 C 6.984375 -3.273438 7.09375 -2.882812 7.09375 -2.40625 Z M 7.09375 -2.40625 "/></g></g><g transform="translate(129.249061, 296.842313)"><g><path d="M 4.234375 -0.9375 C 4.460938 -0.9375 4.691406 -0.953125 4.921875 -0.984375 C 5.148438 -1.023438 5.335938 -1.070312 5.484375 -1.125 L 5.484375 -0.09375 C 5.328125 -0.0195312 5.109375 0.0351562 4.828125 0.078125 C 4.554688 0.128906 4.289062 0.15625 4.03125 0.15625 C 3.5625 0.15625 3.132812 0.078125 2.75 -0.078125 C 2.375 -0.242188 2.070312 -0.519531 1.84375 -0.90625 C 1.613281 -1.300781 1.5 -1.84375 1.5 -2.53125 L 1.5 -7.75 L 0.25 -7.75 L 0.25 -8.390625 L 1.515625 -8.921875 L 2.046875 -10.828125 L 2.84375 -10.828125 L 2.84375 -8.78125 L 5.421875 -8.78125 L 5.421875 -7.75 L 2.84375 -7.75 L 2.84375 -2.578125 C 2.84375 -2.023438 2.96875 -1.613281 3.21875 -1.34375 C 3.476562 -1.070312 3.816406 -0.9375 4.234375 -0.9375 Z M 4.234375 -0.9375 "/></g></g><g transform="translate(135.101328, 296.842313)"><g><path d="M 4.6875 -8.9375 C 5.738281 -8.9375 6.515625 -8.695312 7.015625 -8.21875 C 7.523438 -7.75 7.78125 -7 7.78125 -5.96875 L 7.78125 0 L 6.8125 0 L 6.5625 -1.296875 L 6.5 -1.296875 C 6.25 -0.972656 5.988281 -0.703125 5.71875 -0.484375 C 5.457031 -0.273438 5.148438 -0.113281 4.796875 0 C 4.453125 0.101562 4.023438 0.15625 3.515625 0.15625 C 2.972656 0.15625 2.492188 0.0625 2.078125 -0.125 C 1.671875 -0.3125 1.347656 -0.59375 1.109375 -0.96875 C 0.867188 -1.351562 0.75 -1.832031 0.75 -2.40625 C 0.75 -3.289062 1.097656 -3.96875 1.796875 -4.4375 C 2.492188 -4.90625 3.550781 -5.160156 4.96875 -5.203125 L 6.484375 -5.265625 L 6.484375 -5.8125 C 6.484375 -6.5625 6.320312 -7.085938 6 -7.390625 C 5.675781 -7.703125 5.21875 -7.859375 4.625 -7.859375 C 4.15625 -7.859375 3.710938 -7.789062 3.296875 -7.65625 C 2.878906 -7.519531 2.484375 -7.363281 2.109375 -7.1875 L 1.703125 -8.1875 C 2.097656 -8.394531 2.550781 -8.570312 3.0625 -8.71875 C 3.582031 -8.863281 4.125 -8.9375 4.6875 -8.9375 Z M 6.46875 -4.328125 L 5.125 -4.28125 C 4.03125 -4.226562 3.257812 -4.046875 2.8125 -3.734375 C 2.363281 -3.421875 2.140625 -2.972656 2.140625 -2.390625 C 2.140625 -1.890625 2.289062 -1.519531 2.59375 -1.28125 C 2.90625 -1.039062 3.3125 -0.921875 3.8125 -0.921875 C 4.59375 -0.921875 5.226562 -1.132812 5.71875 -1.5625 C 6.21875 -2 6.46875 -2.648438 6.46875 -3.515625 Z M 1.53125 -9.96875 C 1.5625 -10.289062 1.625 -10.578125 1.71875 -10.828125 C 1.8125 -11.078125 1.929688 -11.289062 2.078125 -11.46875 C 2.222656 -11.644531 2.398438 -11.78125 2.609375 -11.875 C 2.816406 -11.96875 3.046875 -12.015625 3.296875 -12.015625 C 3.546875 -12.015625 3.78125 -11.960938 4 -11.859375 C 4.226562 -11.765625 4.441406 -11.65625 4.640625 -11.53125 C 4.847656 -11.40625 5.046875 -11.289062 5.234375 -11.1875 C 5.421875 -11.09375 5.601562 -11.046875 5.78125 -11.046875 C 6.039062 -11.046875 6.238281 -11.125 6.375 -11.28125 C 6.519531 -11.4375 6.628906 -11.6875 6.703125 -12.03125 L 7.484375 -12.03125 C 7.421875 -11.40625 7.238281 -10.90625 6.9375 -10.53125 C 6.632812 -10.164062 6.226562 -9.984375 5.71875 -9.984375 C 5.488281 -9.984375 5.265625 -10.03125 5.046875 -10.125 C 4.828125 -10.226562 4.613281 -10.34375 4.40625 -10.46875 C 4.207031 -10.59375 4.007812 -10.703125 3.8125 -10.796875 C 3.613281 -10.898438 3.421875 -10.953125 3.234375 -10.953125 C 2.972656 -10.953125 2.773438 -10.875 2.640625 -10.71875 C 2.503906 -10.5625 2.394531 -10.3125 2.3125 -9.96875 Z M 1.53125 -9.96875 "/></g></g><g transform="translate(144.224452, 296.842313)"><g><path d="M 8.984375 -4.40625 C 8.984375 -3.6875 8.890625 -3.039062 8.703125 -2.46875 C 8.515625 -1.90625 8.242188 -1.425781 7.890625 -1.03125 C 7.535156 -0.644531 7.109375 -0.347656 6.609375 -0.140625 C 6.109375 0.0546875 5.546875 0.15625 4.921875 0.15625 C 4.328125 0.15625 3.785156 0.0546875 3.296875 -0.140625 C 2.804688 -0.347656 2.382812 -0.644531 2.03125 -1.03125 C 1.675781 -1.425781 1.398438 -1.90625 1.203125 -2.46875 C 1.015625 -3.039062 0.921875 -3.6875 0.921875 -4.40625 C 0.921875 -5.375 1.082031 -6.191406 1.40625 -6.859375 C 1.726562 -7.535156 2.191406 -8.050781 2.796875 -8.40625 C 3.410156 -8.769531 4.132812 -8.953125 4.96875 -8.953125 C 5.769531 -8.953125 6.472656 -8.769531 7.078125 -8.40625 C 7.679688 -8.050781 8.148438 -7.535156 8.484375 -6.859375 C 8.816406 -6.179688 8.984375 -5.363281 8.984375 -4.40625 Z M 2.296875 -4.40625 C 2.296875 -3.707031 2.390625 -3.097656 2.578125 -2.578125 C 2.765625 -2.054688 3.050781 -1.65625 3.4375 -1.375 C 3.832031 -1.09375 4.335938 -0.953125 4.953125 -0.953125 C 5.554688 -0.953125 6.054688 -1.09375 6.453125 -1.375 C 6.847656 -1.65625 7.132812 -2.054688 7.3125 -2.578125 C 7.5 -3.097656 7.59375 -3.707031 7.59375 -4.40625 C 7.59375 -5.101562 7.5 -5.707031 7.3125 -6.21875 C 7.132812 -6.726562 6.847656 -7.125 6.453125 -7.40625 C 6.066406 -7.6875 5.5625 -7.828125 4.9375 -7.828125 C 4.019531 -7.828125 3.347656 -7.523438 2.921875 -6.921875 C 2.503906 -6.316406 2.296875 -5.476562 2.296875 -4.40625 Z M 2.296875 -4.40625 "/></g></g><g transform="translate(154.101156, 296.842313)"><g/></g><g transform="translate(158.366096, 296.842313)"><g><path d="M 8.953125 0 L 7.515625 -3.71875 L 2.8125 -3.71875 L 1.375 0 L 0 0 L 4.59375 -11.765625 L 5.8125 -11.765625 L 10.375 0 Z M 7.109375 -4.9375 L 5.734375 -8.625 C 5.703125 -8.71875 5.648438 -8.875 5.578125 -9.09375 C 5.503906 -9.320312 5.429688 -9.550781 5.359375 -9.78125 C 5.285156 -10.019531 5.222656 -10.210938 5.171875 -10.359375 C 5.117188 -10.128906 5.0625 -9.90625 5 -9.6875 C 4.9375 -9.476562 4.875 -9.28125 4.8125 -9.09375 C 4.757812 -8.914062 4.710938 -8.757812 4.671875 -8.625 L 3.265625 -4.9375 Z M 7.109375 -4.9375 "/></g></g><g transform="translate(168.747858, 296.842313)"><g><path d="M 4.53125 0.15625 C 3.414062 0.15625 2.535156 -0.21875 1.890625 -0.96875 C 1.242188 -1.726562 0.921875 -2.859375 0.921875 -4.359375 C 0.921875 -5.867188 1.25 -7.007812 1.90625 -7.78125 C 2.570312 -8.5625 3.453125 -8.953125 4.546875 -8.953125 C 5.015625 -8.953125 5.421875 -8.890625 5.765625 -8.765625 C 6.117188 -8.640625 6.421875 -8.472656 6.671875 -8.265625 C 6.921875 -8.066406 7.132812 -7.832031 7.3125 -7.5625 L 7.40625 -7.5625 C 7.382812 -7.726562 7.363281 -7.957031 7.34375 -8.25 C 7.320312 -8.539062 7.3125 -8.773438 7.3125 -8.953125 L 7.3125 -12.484375 L 8.640625 -12.484375 L 8.640625 0 L 7.5625 0 L 7.359375 -1.25 L 7.3125 -1.25 C 7.144531 -0.988281 6.929688 -0.75 6.671875 -0.53125 C 6.421875 -0.320312 6.117188 -0.15625 5.765625 -0.03125 C 5.421875 0.09375 5.007812 0.15625 4.53125 0.15625 Z M 4.734375 -0.953125 C 5.679688 -0.953125 6.347656 -1.21875 6.734375 -1.75 C 7.128906 -2.28125 7.328125 -3.070312 7.328125 -4.125 L 7.328125 -4.375 C 7.328125 -5.488281 7.140625 -6.34375 6.765625 -6.9375 C 6.390625 -7.539062 5.710938 -7.84375 4.734375 -7.84375 C 3.921875 -7.84375 3.3125 -7.523438 2.90625 -6.890625 C 2.5 -6.265625 2.296875 -5.410156 2.296875 -4.328125 C 2.296875 -3.242188 2.492188 -2.410156 2.890625 -1.828125 C 3.296875 -1.242188 3.910156 -0.953125 4.734375 -0.953125 Z M 4.734375 -0.953125 "/></g></g><g transform="translate(178.792914, 296.842313)"><g><path d="M 10.9375 -8.953125 C 11.90625 -8.953125 12.632812 -8.695312 13.125 -8.1875 C 13.625 -7.6875 13.875 -6.875 13.875 -5.75 L 13.875 0 L 12.5625 0 L 12.5625 -5.6875 C 12.5625 -6.40625 12.40625 -6.941406 12.09375 -7.296875 C 11.789062 -7.648438 11.335938 -7.828125 10.734375 -7.828125 C 9.878906 -7.828125 9.257812 -7.578125 8.875 -7.078125 C 8.488281 -6.585938 8.296875 -5.867188 8.296875 -4.921875 L 8.296875 0 L 6.96875 0 L 6.96875 -5.6875 C 6.96875 -6.164062 6.898438 -6.5625 6.765625 -6.875 C 6.628906 -7.195312 6.425781 -7.4375 6.15625 -7.59375 C 5.882812 -7.75 5.546875 -7.828125 5.140625 -7.828125 C 4.554688 -7.828125 4.085938 -7.707031 3.734375 -7.46875 C 3.378906 -7.226562 3.125 -6.867188 2.96875 -6.390625 C 2.8125 -5.921875 2.734375 -5.34375 2.734375 -4.65625 L 2.734375 0 L 1.40625 0 L 1.40625 -8.78125 L 2.484375 -8.78125 L 2.671875 -7.546875 L 2.75 -7.546875 C 2.925781 -7.847656 3.144531 -8.101562 3.40625 -8.3125 C 3.675781 -8.519531 3.976562 -8.675781 4.3125 -8.78125 C 4.644531 -8.894531 5 -8.953125 5.375 -8.953125 C 6.039062 -8.953125 6.597656 -8.828125 7.046875 -8.578125 C 7.503906 -8.328125 7.832031 -7.945312 8.03125 -7.4375 L 8.109375 -7.4375 C 8.398438 -7.945312 8.796875 -8.328125 9.296875 -8.578125 C 9.796875 -8.828125 10.34375 -8.953125 10.9375 -8.953125 Z M 10.9375 -8.953125 "/></g></g><g transform="translate(193.992776, 296.842313)"><g><path d="M 2.734375 -8.78125 L 2.734375 0 L 1.40625 0 L 1.40625 -8.78125 Z M 2.078125 -12.078125 C 2.296875 -12.078125 2.484375 -12.003906 2.640625 -11.859375 C 2.804688 -11.722656 2.890625 -11.503906 2.890625 -11.203125 C 2.890625 -10.910156 2.804688 -10.691406 2.640625 -10.546875 C 2.484375 -10.398438 2.296875 -10.328125 2.078125 -10.328125 C 1.847656 -10.328125 1.65625 -10.398438 1.5 -10.546875 C 1.351562 -10.691406 1.28125 -10.910156 1.28125 -11.203125 C 1.28125 -11.503906 1.351562 -11.722656 1.5 -11.859375 C 1.65625 -12.003906 1.847656 -12.078125 2.078125 -12.078125 Z M 2.078125 -12.078125 "/></g></g><g transform="translate(198.137465, 296.842313)"><g><path d="M 5.5625 -8.953125 C 6.601562 -8.953125 7.390625 -8.695312 7.921875 -8.1875 C 8.460938 -7.675781 8.734375 -6.851562 8.734375 -5.71875 L 8.734375 0 L 7.421875 0 L 7.421875 -5.640625 C 7.421875 -6.367188 7.253906 -6.914062 6.921875 -7.28125 C 6.585938 -7.644531 6.070312 -7.828125 5.375 -7.828125 C 4.40625 -7.828125 3.722656 -7.550781 3.328125 -7 C 2.929688 -6.445312 2.734375 -5.648438 2.734375 -4.609375 L 2.734375 0 L 1.40625 0 L 1.40625 -8.78125 L 2.484375 -8.78125 L 2.671875 -7.515625 L 2.75 -7.515625 C 2.9375 -7.828125 3.171875 -8.085938 3.453125 -8.296875 C 3.742188 -8.515625 4.066406 -8.675781 4.421875 -8.78125 C 4.785156 -8.894531 5.164062 -8.953125 5.5625 -8.953125 Z M 5.5625 -8.953125 "/></g></g><g transform="translate(208.206571, 296.842313)"><g><path d="M 2.734375 -8.78125 L 2.734375 0 L 1.40625 0 L 1.40625 -8.78125 Z M 2.078125 -12.078125 C 2.296875 -12.078125 2.484375 -12.003906 2.640625 -11.859375 C 2.804688 -11.722656 2.890625 -11.503906 2.890625 -11.203125 C 2.890625 -10.910156 2.804688 -10.691406 2.640625 -10.546875 C 2.484375 -10.398438 2.296875 -10.328125 2.078125 -10.328125 C 1.847656 -10.328125 1.65625 -10.398438 1.5 -10.546875 C 1.351562 -10.691406 1.28125 -10.910156 1.28125 -11.203125 C 1.28125 -11.503906 1.351562 -11.722656 1.5 -11.859375 C 1.65625 -12.003906 1.847656 -12.078125 2.078125 -12.078125 Z M 2.078125 -12.078125 "/></g></g><g transform="translate(212.351259, 296.842313)"><g><path d="M 7.09375 -2.40625 C 7.09375 -1.84375 6.953125 -1.367188 6.671875 -0.984375 C 6.390625 -0.609375 5.988281 -0.320312 5.46875 -0.125 C 4.945312 0.0625 4.320312 0.15625 3.59375 0.15625 C 2.976562 0.15625 2.445312 0.109375 2 0.015625 C 1.550781 -0.078125 1.160156 -0.210938 0.828125 -0.390625 L 0.828125 -1.625 C 1.179688 -1.445312 1.609375 -1.285156 2.109375 -1.140625 C 2.609375 -0.992188 3.113281 -0.921875 3.625 -0.921875 C 4.382812 -0.921875 4.9375 -1.039062 5.28125 -1.28125 C 5.625 -1.53125 5.796875 -1.867188 5.796875 -2.296875 C 5.796875 -2.535156 5.726562 -2.742188 5.59375 -2.921875 C 5.457031 -3.109375 5.226562 -3.289062 4.90625 -3.46875 C 4.582031 -3.644531 4.140625 -3.835938 3.578125 -4.046875 C 3.015625 -4.253906 2.523438 -4.460938 2.109375 -4.671875 C 1.703125 -4.890625 1.390625 -5.148438 1.171875 -5.453125 C 0.953125 -5.753906 0.84375 -6.148438 0.84375 -6.640625 C 0.84375 -7.378906 1.140625 -7.945312 1.734375 -8.34375 C 2.335938 -8.75 3.128906 -8.953125 4.109375 -8.953125 C 4.640625 -8.953125 5.132812 -8.898438 5.59375 -8.796875 C 6.0625 -8.691406 6.492188 -8.550781 6.890625 -8.375 L 6.453125 -7.3125 C 6.085938 -7.457031 5.695312 -7.582031 5.28125 -7.6875 C 4.875 -7.800781 4.457031 -7.859375 4.03125 -7.859375 C 3.414062 -7.859375 2.941406 -7.753906 2.609375 -7.546875 C 2.273438 -7.347656 2.109375 -7.070312 2.109375 -6.71875 C 2.109375 -6.445312 2.1875 -6.222656 2.34375 -6.046875 C 2.5 -5.867188 2.742188 -5.703125 3.078125 -5.546875 C 3.410156 -5.390625 3.851562 -5.207031 4.40625 -5 C 4.957031 -4.800781 5.429688 -4.59375 5.828125 -4.375 C 6.234375 -4.15625 6.546875 -3.890625 6.765625 -3.578125 C 6.984375 -3.273438 7.09375 -2.882812 7.09375 -2.40625 Z M 7.09375 -2.40625 "/></g></g><g transform="translate(220.175661, 296.842313)"><g><path d="M 4.234375 -0.9375 C 4.460938 -0.9375 4.691406 -0.953125 4.921875 -0.984375 C 5.148438 -1.023438 5.335938 -1.070312 5.484375 -1.125 L 5.484375 -0.09375 C 5.328125 -0.0195312 5.109375 0.0351562 4.828125 0.078125 C 4.554688 0.128906 4.289062 0.15625 4.03125 0.15625 C 3.5625 0.15625 3.132812 0.078125 2.75 -0.078125 C 2.375 -0.242188 2.070312 -0.519531 1.84375 -0.90625 C 1.613281 -1.300781 1.5 -1.84375 1.5 -2.53125 L 1.5 -7.75 L 0.25 -7.75 L 0.25 -8.390625 L 1.515625 -8.921875 L 2.046875 -10.828125 L 2.84375 -10.828125 L 2.84375 -8.78125 L 5.421875 -8.78125 L 5.421875 -7.75 L 2.84375 -7.75 L 2.84375 -2.578125 C 2.84375 -2.023438 2.96875 -1.613281 3.21875 -1.34375 C 3.476562 -1.070312 3.816406 -0.9375 4.234375 -0.9375 Z M 4.234375 -0.9375 "/></g></g><g transform="translate(226.027928, 296.842313)"><g><path d="M 5.390625 -8.953125 C 5.566406 -8.953125 5.75 -8.941406 5.9375 -8.921875 C 6.132812 -8.898438 6.3125 -8.875 6.46875 -8.84375 L 6.296875 -7.609375 C 6.148438 -7.648438 5.988281 -7.679688 5.8125 -7.703125 C 5.632812 -7.722656 5.46875 -7.734375 5.3125 -7.734375 C 4.957031 -7.734375 4.625 -7.660156 4.3125 -7.515625 C 4 -7.378906 3.722656 -7.175781 3.484375 -6.90625 C 3.253906 -6.644531 3.070312 -6.328125 2.9375 -5.953125 C 2.8125 -5.578125 2.75 -5.164062 2.75 -4.71875 L 2.75 0 L 1.40625 0 L 1.40625 -8.78125 L 2.515625 -8.78125 L 2.65625 -7.171875 L 2.703125 -7.171875 C 2.890625 -7.492188 3.109375 -7.789062 3.359375 -8.0625 C 3.617188 -8.332031 3.914062 -8.546875 4.25 -8.703125 C 4.59375 -8.867188 4.972656 -8.953125 5.390625 -8.953125 Z M 5.390625 -8.953125 "/></g></g><g transform="translate(232.737994, 296.842313)"><g><path d="M 4.6875 -8.9375 C 5.738281 -8.9375 6.515625 -8.695312 7.015625 -8.21875 C 7.523438 -7.75 7.78125 -7 7.78125 -5.96875 L 7.78125 0 L 6.8125 0 L 6.5625 -1.296875 L 6.5 -1.296875 C 6.25 -0.972656 5.988281 -0.703125 5.71875 -0.484375 C 5.457031 -0.273438 5.148438 -0.113281 4.796875 0 C 4.453125 0.101562 4.023438 0.15625 3.515625 0.15625 C 2.972656 0.15625 2.492188 0.0625 2.078125 -0.125 C 1.671875 -0.3125 1.347656 -0.59375 1.109375 -0.96875 C 0.867188 -1.351562 0.75 -1.832031 0.75 -2.40625 C 0.75 -3.289062 1.097656 -3.96875 1.796875 -4.4375 C 2.492188 -4.90625 3.550781 -5.160156 4.96875 -5.203125 L 6.484375 -5.265625 L 6.484375 -5.8125 C 6.484375 -6.5625 6.320312 -7.085938 6 -7.390625 C 5.675781 -7.703125 5.21875 -7.859375 4.625 -7.859375 C 4.15625 -7.859375 3.710938 -7.789062 3.296875 -7.65625 C 2.878906 -7.519531 2.484375 -7.363281 2.109375 -7.1875 L 1.703125 -8.1875 C 2.097656 -8.394531 2.550781 -8.570312 3.0625 -8.71875 C 3.582031 -8.863281 4.125 -8.9375 4.6875 -8.9375 Z M 6.46875 -4.328125 L 5.125 -4.28125 C 4.03125 -4.226562 3.257812 -4.046875 2.8125 -3.734375 C 2.363281 -3.421875 2.140625 -2.972656 2.140625 -2.390625 C 2.140625 -1.890625 2.289062 -1.519531 2.59375 -1.28125 C 2.90625 -1.039062 3.3125 -0.921875 3.8125 -0.921875 C 4.59375 -0.921875 5.226562 -1.132812 5.71875 -1.5625 C 6.21875 -2 6.46875 -2.648438 6.46875 -3.515625 Z M 6.46875 -4.328125 "/></g></g><g transform="translate(241.861118, 296.842313)"><g><path d="M 4.234375 -0.9375 C 4.460938 -0.9375 4.691406 -0.953125 4.921875 -0.984375 C 5.148438 -1.023438 5.335938 -1.070312 5.484375 -1.125 L 5.484375 -0.09375 C 5.328125 -0.0195312 5.109375 0.0351562 4.828125 0.078125 C 4.554688 0.128906 4.289062 0.15625 4.03125 0.15625 C 3.5625 0.15625 3.132812 0.078125 2.75 -0.078125 C 2.375 -0.242188 2.070312 -0.519531 1.84375 -0.90625 C 1.613281 -1.300781 1.5 -1.84375 1.5 -2.53125 L 1.5 -7.75 L 0.25 -7.75 L 0.25 -8.390625 L 1.515625 -8.921875 L 2.046875 -10.828125 L 2.84375 -10.828125 L 2.84375 -8.78125 L 5.421875 -8.78125 L 5.421875 -7.75 L 2.84375 -7.75 L 2.84375 -2.578125 C 2.84375 -2.023438 2.96875 -1.613281 3.21875 -1.34375 C 3.476562 -1.070312 3.816406 -0.9375 4.234375 -0.9375 Z M 4.234375 -0.9375 "/></g></g><g transform="translate(247.713385, 296.842313)"><g><path d="M 2.734375 -8.78125 L 2.734375 0 L 1.40625 0 L 1.40625 -8.78125 Z M 2.078125 -12.078125 C 2.296875 -12.078125 2.484375 -12.003906 2.640625 -11.859375 C 2.804688 -11.722656 2.890625 -11.503906 2.890625 -11.203125 C 2.890625 -10.910156 2.804688 -10.691406 2.640625 -10.546875 C 2.484375 -10.398438 2.296875 -10.328125 2.078125 -10.328125 C 1.847656 -10.328125 1.65625 -10.398438 1.5 -10.546875 C 1.351562 -10.691406 1.28125 -10.910156 1.28125 -11.203125 C 1.28125 -11.503906 1.351562 -11.722656 1.5 -11.859375 C 1.65625 -12.003906 1.847656 -12.078125 2.078125 -12.078125 Z M 2.078125 -12.078125 "/></g></g><g transform="translate(251.858073, 296.842313)"><g><path d="M 3.328125 0 L 0 -8.78125 L 1.421875 -8.78125 L 3.359375 -3.46875 C 3.492188 -3.101562 3.628906 -2.703125 3.765625 -2.265625 C 3.910156 -1.828125 4.007812 -1.472656 4.0625 -1.203125 L 4.109375 -1.203125 C 4.171875 -1.472656 4.273438 -1.828125 4.421875 -2.265625 C 4.578125 -2.710938 4.71875 -3.113281 4.84375 -3.46875 L 6.78125 -8.78125 L 8.203125 -8.78125 L 4.859375 0 Z M 3.328125 0 "/></g></g><g transform="translate(260.059265, 296.842313)"><g><path d="M 4.6875 -8.9375 C 5.738281 -8.9375 6.515625 -8.695312 7.015625 -8.21875 C 7.523438 -7.75 7.78125 -7 7.78125 -5.96875 L 7.78125 0 L 6.8125 0 L 6.5625 -1.296875 L 6.5 -1.296875 C 6.25 -0.972656 5.988281 -0.703125 5.71875 -0.484375 C 5.457031 -0.273438 5.148438 -0.113281 4.796875 0 C 4.453125 0.101562 4.023438 0.15625 3.515625 0.15625 C 2.972656 0.15625 2.492188 0.0625 2.078125 -0.125 C 1.671875 -0.3125 1.347656 -0.59375 1.109375 -0.96875 C 0.867188 -1.351562 0.75 -1.832031 0.75 -2.40625 C 0.75 -3.289062 1.097656 -3.96875 1.796875 -4.4375 C 2.492188 -4.90625 3.550781 -5.160156 4.96875 -5.203125 L 6.484375 -5.265625 L 6.484375 -5.8125 C 6.484375 -6.5625 6.320312 -7.085938 6 -7.390625 C 5.675781 -7.703125 5.21875 -7.859375 4.625 -7.859375 C 4.15625 -7.859375 3.710938 -7.789062 3.296875 -7.65625 C 2.878906 -7.519531 2.484375 -7.363281 2.109375 -7.1875 L 1.703125 -8.1875 C 2.097656 -8.394531 2.550781 -8.570312 3.0625 -8.71875 C 3.582031 -8.863281 4.125 -8.9375 4.6875 -8.9375 Z M 6.46875 -4.328125 L 5.125 -4.28125 C 4.03125 -4.226562 3.257812 -4.046875 2.8125 -3.734375 C 2.363281 -3.421875 2.140625 -2.972656 2.140625 -2.390625 C 2.140625 -1.890625 2.289062 -1.519531 2.59375 -1.28125 C 2.90625 -1.039062 3.3125 -0.921875 3.8125 -0.921875 C 4.59375 -0.921875 5.226562 -1.132812 5.71875 -1.5625 C 6.21875 -2 6.46875 -2.648438 6.46875 -3.515625 Z M 6.46875 -4.328125 "/></g></g></g></svg>